<?xml version="1.0" encoding="UTF-8" standalone="no"?>
<!-- Generator: Adobe Illustrator 25.4.1, SVG Export Plug-In . SVG Version: 6.00 Build 0)  -->

<svg
   version="1.1"
   x="0px"
   y="0px"
   viewBox="0 0 499.99893 188.49001"
   xml:space="preserve"
   id="svg124"
   sodipodi:docname="logo.svg"
   width="499.99893"
   height="188.49001"
   inkscape:version="1.1.1 (3bf5ae0d25, 2021-09-20, custom)"
   xmlns:inkscape="http://www.inkscape.org/namespaces/inkscape"
   xmlns:sodipodi="http://sodipodi.sourceforge.net/DTD/sodipodi-0.dtd"
   xmlns="http://www.w3.org/2000/svg"
   xmlns:svg="http://www.w3.org/2000/svg"><defs
   id="defs128">
	
</defs><sodipodi:namedview
   id="namedview126"
   pagecolor="#ffffff"
   bordercolor="#666666"
   borderopacity="1.0"
   inkscape:pageshadow="2"
   inkscape:pageopacity="0.0"
   inkscape:pagecheckerboard="0"
   showgrid="false"
   inkscape:snap-page="true"
   width="500px"
   inkscape:snap-grids="false"
   inkscape:snap-to-guides="false"
   inkscape:snap-others="false"
   inkscape:object-nodes="false"
   inkscape:snap-nodes="false"
   inkscape:zoom="0.63902387"
   inkscape:cx="156.48868"
   inkscape:cy="194.04596"
   inkscape:window-width="1424"
   inkscape:window-height="866"
   inkscape:window-x="6"
   inkscape:window-y="24"
   inkscape:window-maximized="1"
   inkscape:current-layer="svg124"
   fit-margin-top="0"
   fit-margin-left="0"
   fit-margin-right="0"
   fit-margin-bottom="0" />
<style
   type="text/css"
   id="style106">
	.st0{display:none;}
	.st1{display:inline;fill:#2D4099;}
	.st2{display:inline;fill:#FEFEFE;}
	.st3{fill:#2D4099;}
</style>

<path
   class="st3"
   d="m 370.1357,33.448083 c 3.02577,-15.35605 3.59823,-17.16426 7.19644,-32.3476901 -7.31456,-0.89048002 -9.86785,-1.87180002 -20.30816,-0.16350002 -9.05916,1.90817002 -15.57413,7.04199002 -18.62717,15.80132012 -1.86272,5.3519 -2.83499,11.02184 -4.20702,16.54638 v 0 c -1.82638,0.10911 -3.65275,0.31804 -5.47002,0.31804 -84.79456,0.0181 -169.58911,0.009 -254.392771,0.0181 -19.962894,0 -39.816733,15.15617 -44.723403,34.49208 C 22.425319,96.389783 15.465099,124.72126 8.4685572,153.03458 5.5608992,164.78335 2.8167988,176.57753 0,188.35356 c 142.08451,0.009 284.17808,0.0181 426.26258,0.0364 1.55378,0 3.09847,0.0636 4.65225,0.10004 17.96386,-2.49878 35.79142,-17.8185 39.87125,-34.27401 9.57708,-38.68997 29.21286,-120.004427 29.21286,-120.004427 0,0 -128.10957,-0.73601 -129.86324,-0.76326 z m -253.17518,41.54315 c -2.97125,-0.99041 -5.60632,0.14536 -7.20553,2.9531 -0.60879,1.0722 -0.90864,2.35338 -1.21757,3.58005 -4.55231,18.16378 -9.086456,36.336617 -13.620572,54.509477 -2.544207,10.195 -11.339879,17.0734 -21.871048,17.10976 -3.243853,0.009 -12.384788,0 -12.384788,0 0,0 11.212642,-47.24944 16.846224,-69.356707 2.026288,-7.94155 11.421655,-14.99263 19.617598,-15.04714 17.509556,-0.1091 55.454496,-0.0817 55.454496,-0.0817 l -6.8966,27.15935 c 0,0 -20.31726,0.1363 -30.04883,0.1363 1.2085,-5.09748 2.26253,-9.86786 3.48012,-14.60189 0.69964,-2.6805 0.97224,-5.31557 -2.1535,-6.3605 z m 101.07744,60.915427 c -2.68958,10.45849 -11.39437,17.21877 -22.22541,17.22786 -16.3919,0.0181 -53.13743,0 -53.13743,0 0,0 11.34895,-46.90414 16.75539,-68.348097 2.26249,-8.96831 11.23991,-15.95579 20.48989,-16.083 3.38924,-0.0455 13.81137,-0.0818 13.81137,-0.0818 0,0 -12.02136,48.367067 -17.59134,70.792377 -0.75415,3.05303 -1.96267,6.33325 2.40791,7.6417 3.38924,1.01765 6.51496,-1.23576 7.59625,-5.50639 5.84258,-23.07953 11.6579,-46.177227 17.35509,-69.293107 0.64513,-2.60781 1.5356,-3.70727 4.42509,-3.63458 8.87744,0.1999 17.75489,0.0727 26.96852,0.0727 -4.416,17.63676 -8.71388,34.846437 -13.02085,52.047057 -1.27209,5.06115 -2.5442,10.1132 -3.83448,15.16525 z m 84.02222,-6.73306 c -1.49019,8.64121 -4.24337,16.38284 -12.43026,21.04418 -3.262,1.86272 -6.63306,2.98944 -10.44029,2.944 -8.34134,-0.0818 -16.6736,-0.0272 -25.01493,-0.0272 -8.47767,0 -28.96754,0.13629 -28.96754,0.13629 0,0 11.1036,-47.10404 16.57364,-68.693397 2.18073,-8.59576 11.43981,-15.82855 20.29,-15.86491 17.10067,-0.0727 55.12736,-0.17264 55.12736,-0.17264 l -7.05107,27.10483 c 0,0 -18.72712,0.11816 -26.49603,0.3998 -3.52552,0.12722 -3.50734,-1.25393 -2.78952,-3.84357 0.98134,-3.52552 1.69916,-7.13285 2.67141,-10.65838 0.79051,-2.89858 0.78143,-5.6245 -2.51694,-6.58766 -3.23478,-0.945 -6.00614,0.48158 -7.16012,3.68 -1.29026,3.56188 -2.1353,7.2964 -3.06212,10.9855 -4.17976,16.682677 -8.305,33.374447 -12.47566,50.048047 -0.75418,3.01671 -1.42659,6.0334 2.4715,7.37818 3.0894,1.06311 6.5695,-1.16307 7.6417,-4.96119 1.19031,-4.19792 2.14437,-8.46855 3.08937,-12.73009 0.47249,-2.15347 1.1994,-3.38015 3.85266,-3.31654 8.05056,0.19081 16.11022,0.11816 24.16081,-0.009 2.52603,-0.0453 2.95308,0.64514 2.52603,3.14389 z m 60.36115,24.1063 c -3.889,0.0636 -14.18392,0 -14.18392,0 0,0 10.78558,-45.2504 16.04663,-66.158277 0.51793,-2.04445 0.89957,-4.14342 1.56286,-6.14242 0.77235,-2.33522 0.32711,-4.27063 -1.68099,-5.56999 -2.15347,-1.3993 -4.32512,-0.78143 -6.30597,0.60878 -2.16258,1.52652 -2.58963,3.97988 -3.16209,6.27873 -5.48821,21.861947 -11.03091,43.714797 -16.30104,65.631267 -0.95409,3.96169 -2.38065,5.30648 -6.67855,5.32466 -7.23278,0.0272 -24.39704,0.0272 -24.39704,0.0272 0,0 21.99826,-90.737067 32.92922,-134.342827 2.17165,-8.66847 11.46708,-14.8018001 20.33542,-15.7467901 4.21611,-0.45434 13.51153,0.24534 13.51153,0.24534 l -15.26522,65.1315101 39.96214,-0.0181 c 0,0 -11.01278,46.922327 -16.43737,68.657067 -2.03535,8.15962 -11.48524,15.94668 -19.93561,16.07389 z m 61.79679,-19.57217 c -1.47199,6.21513 -4.31606,11.16722 -9.24089,15.15617 -5.06115,4.09798 -16.01939,4.61591 -16.01939,4.61591 l -8.98647,-0.19082 c 0,0 10.88554,-47.41298 15.43786,-67.030567 2.16255,-9.33177 12.83004,-17.70038 22.57976,-17.60042 3.49829,-0.0908 11.91232,-0.0908 11.91232,-0.0908 0,0 -10.77651,44.441717 -15.68319,65.140597 z"
   id="path121"
   style="stroke-width:0.908638" />
</svg>
