<?xml version="1.0" encoding="UTF-8" standalone="no"?>
<!-- Generator: Adobe Illustrator 25.4.1, SVG Export Plug-In . SVG Version: 6.00 Build 0)  -->

<svg
   version="1.1"
   x="0px"
   y="0px"
   viewBox="0 0 116.71682 44.000001"
   xml:space="preserve"
   id="svg124"
   sodipodi:docname="logo_44.svg"
   width="116.71682"
   height="44"
   inkscape:version="1.1.1 (3bf5ae0d25, 2021-09-20, custom)"
   xmlns:inkscape="http://www.inkscape.org/namespaces/inkscape"
   xmlns:sodipodi="http://sodipodi.sourceforge.net/DTD/sodipodi-0.dtd"
   xmlns="http://www.w3.org/2000/svg"
   xmlns:svg="http://www.w3.org/2000/svg"><defs
   id="defs128">
	
</defs><sodipodi:namedview
   id="namedview126"
   pagecolor="#ffffff"
   bordercolor="#666666"
   borderopacity="1.0"
   inkscape:pageshadow="2"
   inkscape:pageopacity="0.0"
   inkscape:pagecheckerboard="0"
   showgrid="false"
   inkscape:snap-page="true"
   width="500px"
   inkscape:snap-grids="false"
   inkscape:snap-to-guides="false"
   inkscape:snap-others="false"
   inkscape:object-nodes="false"
   inkscape:snap-nodes="false"
   inkscape:zoom="0.63902387"
   inkscape:cx="117.36651"
   inkscape:cy="194.04596"
   inkscape:window-width="1424"
   inkscape:window-height="866"
   inkscape:window-x="6"
   inkscape:window-y="24"
   inkscape:window-maximized="1"
   inkscape:current-layer="svg124"
   fit-margin-top="0"
   fit-margin-left="0"
   fit-margin-right="0"
   fit-margin-bottom="0" />
<style
   type="text/css"
   id="style106">
	.st0{display:none;}
	.st1{display:inline;fill:#2D4099;}
	.st2{display:inline;fill:#FEFEFE;}
	.st3{fill:#2D4099;}
</style>

<path
   class="st3"
   d="M 86.402307,7.8079243 C 87.108625,4.2232981 87.242256,3.8012001 88.082201,0.25686927 86.374734,0.04900083 85.778708,-0.18007275 83.341584,0.21870278 81.226867,0.6641348 79.70605,1.8625436 78.993366,3.9072703 78.558544,5.1565864 78.331583,6.4801439 78.011304,7.7697602 v 0 c -0.426339,0.02547 -0.852676,0.074241 -1.276889,0.074241 -19.793945,0.00423 -39.587887,0.0021 -59.383956,0.00423 -4.660021,0 -9.2945849,3.5379668 -10.4399692,8.0516288 C 5.2348349,22.500666 3.610082,29.114199 1.9768503,35.723495 1.2981037,38.466059 0.65753699,41.219223 0,43.96815 c 33.167375,0.0021 66.336864,0.0042 99.504236,0.0085 0.362706,0 0.723294,0.01485 1.085994,0.02335 4.19338,-0.583301 8.35494,-4.159446 9.30731,-8.000724 2.23562,-9.03156 6.81928,-28.0131294 6.81928,-28.0131294 0,0 -29.905147,-0.1718099 -30.314513,-0.1781709 z M 27.302578,17.505514 c -0.693591,-0.231196 -1.308707,0.03393 -1.682017,0.689354 -0.142112,0.250288 -0.212108,0.549359 -0.284222,0.835706 -1.062665,4.240046 -2.121089,8.482207 -3.179507,12.724372 -0.593905,2.379861 -2.647115,3.985515 -5.105449,3.994002 -0.757226,0.0021 -2.891032,0 -2.891032,0 0,0 2.617413,-11.029632 3.932484,-16.190222 0.473004,-1.853829 2.666204,-3.499792 4.579417,-3.512517 4.087328,-0.02547 12.944972,-0.01907 12.944972,-0.01907 l -1.609902,6.339919 c 0,0 -4.742742,0.03182 -7.014423,0.03182 0.282106,-1.189926 0.528152,-2.303495 0.812379,-3.408579 0.16332,-0.62572 0.226954,-1.240836 -0.5027,-1.484758 z m 23.594924,14.21974 c -0.627839,2.441368 -2.659834,4.019448 -5.188169,4.02157 -3.826429,0.0042 -12.40409,0 -12.40409,0 0,0 2.649232,-10.949027 3.91128,-15.954779 0.528143,-2.093509 2.623779,-3.724626 4.78304,-3.754321 0.791164,-0.01062 3.224045,-0.0191 3.224045,-0.0191 0,0 -2.806196,11.290525 -4.106419,16.525357 -0.176045,0.712682 -0.458154,1.478397 0.562088,1.783834 0.791165,0.237554 1.520814,-0.288469 1.773224,-1.285379 1.363858,-5.38755 2.721352,-10.779341 4.051271,-16.175377 0.150595,-0.608752 0.358461,-0.865403 1.032967,-0.848435 2.072297,0.04666 4.144597,0.01697 6.295373,0.01697 -1.030845,4.117022 -2.034117,8.134348 -3.039511,12.14956 -0.296949,1.181445 -0.593903,2.360766 -0.895099,3.540087 z m 19.613655,-1.571726 c -0.347862,2.017153 -0.990548,3.824314 -2.901647,4.912429 -0.761462,0.434823 -1.548383,0.697838 -2.43712,0.687231 -1.947154,-0.0191 -3.892188,-0.0064 -5.839339,-0.0064 -1.978977,0 -6.762013,0.03182 -6.762013,0.03182 0,0 2.59196,-10.995691 3.868854,-16.035384 0.509057,-2.006544 2.670442,-3.694924 4.736378,-3.703411 3.99188,-0.01697 12.868608,-0.0403 12.868608,-0.0403 l -1.64596,6.327192 c 0,0 -4.37155,0.02758 -6.185078,0.09333 -0.822977,0.0297 -0.818733,-0.29271 -0.65117,-0.89722 0.229079,-0.822977 0.396642,-1.665051 0.623599,-2.48803 0.184532,-0.676628 0.182412,-1.31295 -0.58754,-1.537785 -0.755108,-0.220595 -1.402038,0.112417 -1.671416,0.859038 -0.301191,0.831464 -0.498452,1.703229 -0.714804,2.564391 -0.975698,3.894306 -1.93867,7.790735 -2.912245,11.682922 -0.176051,0.704203 -0.333014,1.408402 0.576933,1.722319 0.721171,0.248166 1.533545,-0.2715 1.783834,-1.158111 0.277858,-0.979938 0.500569,-1.976849 0.721164,-2.971637 0.110295,-0.502694 0.279981,-0.789043 0.899342,-0.774194 1.879276,0.04454 3.760676,0.02758 5.639958,-0.0021 0.589662,-0.01057 0.68935,0.150598 0.589662,0.733891 z m 14.090352,5.627233 c -0.907825,0.01485 -3.311011,0 -3.311011,0 0,0 2.517723,-10.562988 3.745832,-15.4436 0.120902,-0.477245 0.20999,-0.967216 0.364824,-1.433851 0.180293,-0.54512 0.07636,-0.996911 -0.3924,-1.300226 -0.502693,-0.326644 -1.009631,-0.182412 -1.472029,0.14211 -0.50482,0.356342 -0.604508,0.92904 -0.738139,1.46567 -1.281136,5.103325 -2.574991,10.204526 -3.80522,15.320578 -0.222717,0.924794 -0.555725,1.238714 -1.559001,1.242958 -1.688378,0.0063 -5.695102,0.0063 -5.695102,0.0063 0,0 5.135145,-21.181129 7.686804,-31.3602014 0.506937,-2.0235168 2.676808,-3.45524542 4.746981,-3.67583834 0.984184,-0.10605847 3.154052,0.0572707 3.154052,0.0572707 l -3.563423,15.20391804 9.328528,-0.0042 c 0,0 -2.570759,10.953272 -3.837044,16.026903 -0.47512,1.904733 -2.681047,3.722499 -4.653652,3.752194 z M 99.02699,31.211948 c -0.343613,1.450824 -1.007516,2.606811 -2.15714,3.537968 -1.181445,0.956608 -3.739472,1.077511 -3.739472,1.077511 l -2.097749,-0.04454 c 0,0 2.541057,-11.067808 3.603724,-15.647223 0.504813,-2.178353 2.994969,-4.131873 5.270886,-4.108538 0.816621,-0.0212 2.780741,-0.0212 2.780741,-0.0212 0,0 -2.5156,10.374213 -3.66099,15.206039 z"
   id="path121"
   style="stroke-width:0.212107" />
</svg>
